<?xml version="1.0" encoding="UTF-8"?>
<svg height="16px" viewBox="0 0 16 16" width="16px" xmlns="http://www.w3.org/2000/svg">
    <path d="m 8 1 c -1.074219 0 -2.328125 0.378906 -3.078125 0.980469 c -3.359375 2.6875 -1.699219 8.511719 -3.640625 12.179687 c -0.140625 0.261719 -0.246094 0.648438 -0.28125 0.839844 h 14 c -0.035156 -0.191406 -0.140625 -0.578125 -0.277344 -0.839844 c -1.945312 -3.667968 -0.285156 -9.492187 -3.640625 -12.179687 c -0.753906 -0.601563 -2.007812 -0.980469 -3.082031 -0.980469 z m 0 2 c 0.605469 0 1.605469 0.359375 1.832031 0.542969 c 1 0.800781 1.375 2.238281 1.609375 4.378906 c 0.167969 1.53125 0.226563 3.304687 0.710938 5.078125 h -8.304688 c 0.484375 -1.773438 0.542969 -3.546875 0.710938 -5.078125 c 0.234375 -2.140625 0.609375 -3.578125 1.613281 -4.378906 c 0.222656 -0.183594 1.222656 -0.542969 1.828125 -0.542969 z m 0 0"/>
    <path d="m 9 1.5 s -0.449219 -0.148438 -1 -0.148438 s -1 0.148438 -1 0.148438 c 0 -0.550781 0.449219 -1 1 -1 s 1 0.449219 1 1 z m 0 0"/>
    <path d="m 9.199219 14.800781 c 0 0.660157 -0.535157 1.199219 -1.199219 1.199219 s -1.199219 -0.539062 -1.199219 -1.199219 c 0 -0.664062 0.535157 -1.199219 1.199219 -1.199219 s 1.199219 0.535157 1.199219 1.199219 z m 0 0"/>
</svg>
