<?xml version="1.0" encoding="UTF-8"?>
<svg height="128px" viewBox="0 0 128 128" width="128px" xmlns="http://www.w3.org/2000/svg" xmlns:xlink="http://www.w3.org/1999/xlink">
    <linearGradient id="a" gradientTransform="matrix(0.232143 0 0 0.328947 -8.566908 263.826957)" gradientUnits="userSpaceOnUse" x1="88.595886" x2="536.595886" y1="-449.394012" y2="-449.394012">
        <stop offset="0" stop-color="#c25a64"/>
        <stop offset="0.0384615" stop-color="#cd777f"/>
        <stop offset="0.0768555" stop-color="#ab4e57"/>
        <stop offset="0.923077" stop-color="#ab4e57"/>
        <stop offset="0.961538" stop-color="#cd777f"/>
        <stop offset="1" stop-color="#c25a64"/>
    </linearGradient>
    <radialGradient id="b" cx="63.999363" cy="267.128723" gradientTransform="matrix(0.973684 -0.00017234 0.00004341 0.250638 1.673396 29.384494)" gradientUnits="userSpaceOnUse" r="25.239859">
        <stop offset="0" stop-color="#634717"/>
        <stop offset="1" stop-color="#b38620"/>
    </radialGradient>
    <radialGradient id="c" cx="64.000178" cy="23.000003" gradientUnits="userSpaceOnUse" r="2">
        <stop offset="0" stop-color="#f0bd23"/>
        <stop offset="0.754852" stop-color="#f1c832"/>
        <stop offset="1" stop-color="#efc53b"/>
    </radialGradient>
    <radialGradient id="d" cx="64.00127175" cy="96.32604125" gradientUnits="userSpaceOnUse" r="5">
        <stop offset="0" stop-color="#f0d655"/>
        <stop offset="1" stop-color="#e4b50c"/>
    </radialGradient>
    <linearGradient id="e" gradientUnits="userSpaceOnUse" x1="64.00066950011" x2="64.00066950011" y1="87.00009996434" y2="97.71834675163">
        <stop offset="0.609468" stop-color="#302603" stop-opacity="0.431373"/>
        <stop offset="1" stop-color="#e4b50c" stop-opacity="0"/>
    </linearGradient>
    <radialGradient id="f" cx="64.012291" cy="244.673569" gradientTransform="matrix(2.921104 0.00006545 -0.00012303 5.520927 -122.956708 -1259.329129)" gradientUnits="userSpaceOnUse" r="12.49978">
        <stop offset="0" stop-color="#f7bc0b"/>
        <stop offset="1" stop-color="#fad85f"/>
    </radialGradient>
    <linearGradient id="g" gradientTransform="matrix(1.123506 0 0 1.153846 -3.970853 -218.653642)" gradientUnits="userSpaceOnUse" x1="27.999998" x2="92.998047" y1="272.049805" y2="272.049805">
        <stop offset="0" stop-color="#d7a008"/>
        <stop offset="0.02" stop-color="#f7dc81"/>
        <stop offset="0.08" stop-color="#d0a50a"/>
        <stop offset="0.197239" stop-color="#e3b40b"/>
        <stop offset="0.4" stop-color="#efc94b"/>
        <stop offset="0.5" stop-color="#f0d263"/>
        <stop offset="0.6" stop-color="#efc94b"/>
        <stop offset="0.8" stop-color="#e3b40b"/>
        <stop offset="0.92" stop-color="#d0a50a"/>
        <stop offset="0.98" stop-color="#f4cb44"/>
        <stop offset="1" stop-color="#d7a008"/>
    </linearGradient>
    <path d="m 20 16 h 88 c 4.417969 0 8 3.582031 8 8 v 84 c 0 4.417969 -3.582031 8 -8 8 h -88 c -4.417969 0 -8 -3.582031 -8 -8 v -84 c 0 -4.417969 3.582031 -8 8 -8 z m 0 0" fill="url(#a)"/>
    <path d="m 20 12 h 88 c 4.417969 0 8 3.582031 8 8 v 84 c 0 4.417969 -3.582031 8 -8 8 h -88 c -4.417969 0 -8 -3.582031 -8 -8 v -84 c 0 -4.417969 3.582031 -8 8 -8 z m 0 0" fill="#b9646d"/>
    <path d="m 64 93.25 s -34.925781 1.789062 -36.820312 3.578125 c -0.023438 0.328125 0 0.441406 0.308593 0.570313 c 5.355469 1.601562 11.011719 2.378906 36.511719 3.351562 z m 0 0 s 34.925781 1.789062 36.820312 3.578125 c 0.027344 0.328125 0 0.441406 -0.304687 0.570313 c -5.355469 1.601562 -11.015625 2.378906 -36.515625 3.351562 z m 0 0" fill="url(#b)"/>
    <path d="m 67.5 23 c 0 1.933594 -1.566406 3.5 -3.5 3.5 s -3.5 -1.566406 -3.5 -3.5 s 1.566406 -3.5 3.5 -3.5 s 3.5 1.566406 3.5 3.5 z m 0 0" fill="url(#c)"/>
    <path d="m 71.5 94.5 c 0 4.140625 -3.355469 7.5 -7.5 7.5 c -4.140625 0 -7.5 -3.359375 -7.5 -7.5 s 3.359375 -7.5 7.5 -7.5 c 4.144531 0 7.5 3.359375 7.5 7.5 z m 0 0" fill="url(#d)"/>
    <path d="m 71.5 94.5 c 0 4.140625 -3.355469 7.5 -7.5 7.5 c -4.140625 0 -7.5 -3.359375 -7.5 -7.5 s 3.359375 -7.5 7.5 -7.5 c 4.144531 0 7.5 3.359375 7.5 7.5 z m 0 0" fill="url(#e)"/>
    <path d="m 64 22.5 c -6.074219 -0.183594 -12.175781 2.078125 -16.066406 6 c -13.453125 13.316406 -5.867188 42.050781 -19.960938 64.5 c -0.363281 0.75 -0.882812 2.492188 -0.777344 3.324219 l 36.804688 -4.324219 z m 0.003906 0 c 6.070313 -0.183594 12.175782 2.078125 16.0625 6 c 13.453125 13.316406 5.871094 42.050781 19.960938 64.5 c 0.367187 0.75 0.886718 2.492188 0.78125 3.324219 l -36.804688 -4.324219 z m 0 0" fill="url(#f)"/>
    <path d="m 64 90 c -25.316406 0 -34.78125 4.746094 -36.027344 3 c -0.558594 1.007812 -0.886718 3.074219 -0.972656 3.753906 c 0.03125 0.597656 0.570312 0.789063 0.972656 0.746094 c 1.605469 -0.167969 10.710938 -3.5 36.027344 -3.5 z m 0 0 c 25.316406 0 34.777344 4.746094 36.023438 3 c 0.5625 1.007812 0.890624 3.074219 0.972656 3.753906 c -0.03125 0.597656 -0.570313 0.789063 -0.972656 0.746094 c -1.605469 -0.167969 -10.707032 -3.5 -36.023438 -3.5 z m 0 0" fill="url(#g)"/>
</svg>
