<?xml version="1.0" encoding="UTF-8"?>
<svg height="128px" viewBox="0 0 128 128" width="128px" xmlns="http://www.w3.org/2000/svg" xmlns:xlink="http://www.w3.org/1999/xlink">
    <linearGradient id="a" gradientTransform="matrix(0.232143 0 0 0.328947 -8.566908 263.826957)" gradientUnits="userSpaceOnUse" x1="88.595886" x2="536.595886" y1="-449.394012" y2="-449.394012">
        <stop offset="0" stop-color="#815254"/>
        <stop offset="0.0384615" stop-color="#a87576"/>
        <stop offset="0.0768555" stop-color="#8f5d5e"/>
        <stop offset="0.923077" stop-color="#926364"/>
        <stop offset="0.961538" stop-color="#a87577"/>
        <stop offset="1" stop-color="#815254"/>
    </linearGradient>
    <radialGradient id="b" cx="63.999363" cy="267.128723" gradientTransform="matrix(0.973713 -0.00017397 0.00004341 0.253007 1.672693 28.960002)" gradientUnits="userSpaceOnUse" r="25.239859">
        <stop offset="0" stop-color="#614414"/>
        <stop offset="1" stop-color="#ae821e"/>
    </radialGradient>
    <radialGradient id="c" cx="64.00002408935" cy="23.00008965235" gradientUnits="userSpaceOnUse" r="3.00000142268">
        <stop offset="0" stop-color="#f2b814"/>
        <stop offset="1" stop-color="#eebd2a"/>
    </radialGradient>
    <radialGradient id="d" cx="64.000519" cy="260.461121" gradientTransform="matrix(1.250037 0 0 1.25 -16.002168 -229.250364)" gradientUnits="userSpaceOnUse" r="4">
        <stop offset="0" stop-color="#f2d853"/>
        <stop offset="1" stop-color="#e8b808"/>
    </radialGradient>
    <linearGradient id="e" gradientTransform="matrix(1.07146 0 0 1.071429 -4.573515 -193.98229)" gradientUnits="userSpaceOnUse" x1="64.000259" x2="64.000259" y1="262.250122" y2="272.253815">
        <stop offset="0.609468" stop-color="#302603" stop-opacity="0.431373"/>
        <stop offset="1" stop-color="#e4b50c" stop-opacity="0"/>
    </linearGradient>
    <radialGradient id="f" cx="64.012291" cy="244.673569" gradientTransform="matrix(2.921191 0.00006607 -0.00012304 5.573105 -122.961111 -1271.933192)" gradientUnits="userSpaceOnUse" r="12.49978">
        <stop offset="0" stop-color="#f7bb17"/>
        <stop offset="1" stop-color="#fad242"/>
    </radialGradient>
    <linearGradient id="g" gradientTransform="matrix(1.12354 0 0 1.164751 -3.971724 -221.42233)" gradientUnits="userSpaceOnUse" x1="27.999998" x2="92.998047" y1="272.049805" y2="272.049805">
        <stop offset="0" stop-color="#d7a008"/>
        <stop offset="0.02" stop-color="#f6d056"/>
        <stop offset="0.08" stop-color="#d7ab09"/>
        <stop offset="0.197239" stop-color="#e8b708"/>
        <stop offset="0.4" stop-color="#f1ca46"/>
        <stop offset="0.5" stop-color="#f0cf51"/>
        <stop offset="0.6" stop-color="#f1ca46"/>
        <stop offset="0.8" stop-color="#e8b708"/>
        <stop offset="0.92" stop-color="#d7ab09"/>
        <stop offset="0.98" stop-color="#f6d056"/>
        <stop offset="1" stop-color="#d7a008"/>
    </linearGradient>
    <path d="m 20 16 h 88 c 4.417969 0 8 3.582031 8 8 v 84 c 0 4.417969 -3.582031 8 -8 8 h -88 c -4.417969 0 -8 -3.582031 -8 -8 v -84 c 0 -4.417969 3.582031 -8 8 -8 z m 0 0" fill="url(#a)"/>
    <path d="m 20 12 h 88 c 4.417969 0 8 3.582031 8 8 v 84 c 0 4.417969 -3.582031 8 -8 8 h -88 c -4.417969 0 -8 -3.582031 -8 -8 v -84 c 0 -4.417969 3.582031 -8 8 -8 z m 0 0" fill="#a56f72"/>
    <path d="m 21.5 14 h 85 c 4.140625 0 7.5 3.359375 7.5 7.5 v 81 c 0 4.140625 -3.359375 7.5 -7.5 7.5 h -85 c -4.140625 0 -7.5 -3.359375 -7.5 -7.5 v -81 c 0 -4.140625 3.359375 -7.5 7.5 -7.5 z m 0 0" fill="#875e5f"/>
    <path d="m 64 93.429688 s -34.925781 1.804687 -36.820312 3.613281 c -0.023438 0.328125 0 0.445312 0.308593 0.574219 c 5.355469 1.617187 11.011719 2.398437 36.511719 3.382812 z m 0.003906 0 s 34.925782 1.804687 36.816406 3.613281 c 0.027344 0.328125 0 0.445312 -0.304687 0.574219 c -5.355469 1.617187 -11.011719 2.398437 -36.511719 3.382812 z m 0 0" fill="url(#b)"/>
    <path d="m 67 23 c 0 1.65625 -1.34375 3 -3 3 s -3 -1.34375 -3 -3 s 1.34375 -3 3 -3 s 3 1.34375 3 3 z m 0 0" fill="url(#c)"/>
    <path d="m 71.5 94.5 c 0 4.140625 -3.359375 7.5 -7.5 7.5 s -7.5 -3.359375 -7.5 -7.5 s 3.359375 -7.5 7.5 -7.5 s 7.5 3.359375 7.5 7.5 z m 0 0" fill="url(#d)"/>
    <path d="m 71.5 94.5 c 0 4.140625 -3.359375 7.5 -7.5 7.5 s -7.5 -3.359375 -7.5 -7.5 s 3.359375 -7.5 7.5 -7.5 s 7.5 3.359375 7.5 7.5 z m 0 0" fill="url(#e)"/>
    <path d="m 64 22.011719 c -6.070312 -0.1875 -12.175781 2.097656 -16.066406 6.054687 c -13.453125 13.441406 -5.867188 42.449219 -19.960938 65.109375 c -0.363281 0.757813 -0.882812 2.515625 -0.777344 3.359375 l 36.804688 -4.367187 z m 0.003906 0 c 6.074219 -0.1875 12.175782 2.097656 16.066406 6.054687 c 13.453126 13.441406 5.867188 42.449219 19.960938 65.109375 c 0.363281 0.757813 0.882812 2.515625 0.777344 3.359375 l -36.804688 -4.367187 z m 0 0" fill="url(#f)"/>
    <path d="m 64 90.148438 c -25.316406 0 -34.78125 4.792968 -36.027344 3.027343 c -0.558594 1.019531 -0.886718 3.105469 -0.972656 3.789063 c 0.03125 0.601562 0.570312 0.796875 0.972656 0.753906 c 1.605469 -0.167969 10.710938 -3.53125 36.027344 -3.53125 z m 0 0 c 25.316406 0 34.78125 4.792968 36.027344 3.027343 c 0.558594 1.019531 0.886718 3.105469 0.972656 3.789063 c -0.03125 0.601562 -0.570312 0.796875 -0.972656 0.753906 c -1.605469 -0.167969 -10.710938 -3.53125 -36.027344 -3.53125 z m 0 0" fill="url(#g)"/>
</svg>
