<?xml version="1.0" encoding="UTF-8"?>
<svg height="128px" viewBox="0 0 128 128" width="128px" xmlns="http://www.w3.org/2000/svg" xmlns:xlink="http://www.w3.org/1999/xlink">
    <radialGradient id="a" cx="63.999363" cy="267.128723" gradientTransform="matrix(1.244883 -0.00022241 0.00005549 0.323468 -15.684615 23.036458)" gradientUnits="userSpaceOnUse" r="25.239859">
        <stop offset="0" stop-color="#614414"/>
        <stop offset="1" stop-color="#ae821e"/>
    </radialGradient>
    <radialGradient id="b" cx="64.0003064253" cy="15.41676705185" gradientUnits="userSpaceOnUse" r="3.83547390198">
        <stop offset="0" stop-color="#f2b814"/>
        <stop offset="1" stop-color="#eebd2a"/>
    </radialGradient>
    <radialGradient id="c" cx="64.000519" cy="260.461121" gradientTransform="matrix(1.598161 0 0 1.598114 -38.281764 -307.083122)" gradientUnits="userSpaceOnUse" r="4">
        <stop offset="0" stop-color="#f2d853"/>
        <stop offset="1" stop-color="#e8b808"/>
    </radialGradient>
    <linearGradient id="d" gradientTransform="matrix(1.369852 0 0 1.369812 -23.67034 -261.993196)" gradientUnits="userSpaceOnUse" x1="64.000259" x2="64.000259" y1="262.250122" y2="272.253815">
        <stop offset="0.609468" stop-color="#302603" stop-opacity="0.431373"/>
        <stop offset="1" stop-color="#e4b50c" stop-opacity="0"/>
    </linearGradient>
    <radialGradient id="e" cx="64.012291" cy="244.673569" gradientTransform="matrix(3.734716 0.00008448 -0.0001573 7.125163 -175.027799 -1640.143569)" gradientUnits="userSpaceOnUse" r="12.49978">
        <stop offset="0" stop-color="#f7bb17"/>
        <stop offset="1" stop-color="#fad242"/>
    </radialGradient>
    <linearGradient id="f" gradientTransform="matrix(1.436436 0 0 1.489124 -22.900949 -297.075055)" gradientUnits="userSpaceOnUse" x1="27.999998" x2="92.998047" y1="272.049805" y2="272.049805">
        <stop offset="0" stop-color="#d7a008"/>
        <stop offset="0.02" stop-color="#f6d056"/>
        <stop offset="0.08" stop-color="#d7ab09"/>
        <stop offset="0.197239" stop-color="#e8b708"/>
        <stop offset="0.4" stop-color="#f1ca46"/>
        <stop offset="0.5" stop-color="#f0cf51"/>
        <stop offset="0.6" stop-color="#f1ca46"/>
        <stop offset="0.8" stop-color="#e8b708"/>
        <stop offset="0.92" stop-color="#d7ab09"/>
        <stop offset="0.98" stop-color="#f6d056"/>
        <stop offset="1" stop-color="#d7a008"/>
    </linearGradient>
    <path d="m 64 105.460938 s -44.652344 2.304687 -47.074219 4.621093 c -0.03125 0.417969 0 0.566407 0.394531 0.734375 c 6.851563 2.0625 14.074219 3.0625 46.679688 4.320313 z m 0.007812 0 s 44.652344 2.304687 47.066407 4.621093 c 0.035156 0.417969 0 0.566407 -0.386719 0.734375 c -6.851562 2.0625 -14.082031 3.0625 -46.679688 4.320313 z m 0 0" fill="url(#a)"/>
    <path d="m 67.835938 15.417969 c 0 2.117187 -1.71875 3.835937 -3.835938 3.835937 s -3.835938 -1.71875 -3.835938 -3.835937 c 0 -2.117188 1.71875 -3.835938 3.835938 -3.835938 s 3.835938 1.71875 3.835938 3.835938 z m 0 0" fill="url(#b)"/>
    <path d="m 73.585938 106.832031 c 0 5.289063 -4.289063 9.585938 -9.585938 9.585938 s -9.585938 -4.296875 -9.585938 -9.585938 c 0 -5.296875 4.289063 -9.59375 9.585938 -9.59375 s 9.585938 4.296875 9.585938 9.59375 z m 0 0" fill="url(#c)"/>
    <path d="m 73.585938 106.832031 c 0 5.289063 -4.289063 9.585938 -9.585938 9.585938 s -9.585938 -4.296875 -9.585938 -9.585938 c 0 -5.296875 4.289063 -9.59375 9.585938 -9.59375 s 9.585938 4.296875 9.585938 9.59375 z m 0 0" fill="url(#d)"/>
    <path d="m 64 14.148438 c -7.757812 -0.234376 -15.566406 2.683593 -20.542969 7.742187 c -17.199219 17.1875 -7.5 54.277344 -25.519531 83.246094 c -0.460938 0.964843 -1.125 3.214843 -0.992188 4.296875 l 47.054688 -5.589844 z m 0.007812 0 c 7.765626 -0.234376 15.566407 2.683593 20.535157 7.742187 c 17.199219 17.1875 7.503906 54.277344 25.523437 83.246094 c 0.460938 0.964843 1.128906 3.214843 0.996094 4.296875 l -47.054688 -5.589844 z m 0 0" fill="url(#e)"/>
    <path d="m 64 101.265625 c -32.367188 0 -44.464844 6.128906 -46.0625 3.871094 c -0.714844 1.304687 -1.132812 3.96875 -1.242188 4.84375 c 0.042969 0.769531 0.726563 1.019531 1.242188 0.964843 c 2.050781 -0.214843 13.695312 -4.515624 46.0625 -4.515624 z m 0 0 c 32.367188 0 44.464844 6.128906 46.0625 3.871094 c 0.714844 1.304687 1.132812 3.96875 1.242188 4.84375 c -0.042969 0.769531 -0.726563 1.019531 -1.242188 0.964843 c -2.050781 -0.214843 -13.695312 -4.515624 -46.0625 -4.515624 z m 0 0" fill="url(#f)"/>
</svg>
